<svg width="24" height="24" viewBox="0 0 24 24" fill="none" xmlns="http://www.w3.org/2000/svg">
<path d="M11.9998 0C5.34806 0 -0.0443115 5.39238 -0.0443115 12.0441C-0.0443115 17.6923 3.84448 22.4319 9.0904 23.7336V15.7248H6.60691V12.0441H9.0904V10.4581C9.0904 6.35879 10.9457 4.45872 14.9703 4.45872C15.7334 4.45872 17.0501 4.60855 17.5887 4.75789V8.0941C17.3045 8.06423 16.8107 8.0493 16.1974 8.0493C14.2226 8.0493 13.4595 8.79748 13.4595 10.7424V12.0441H17.3936L16.7177 15.7248H13.4595V24C19.4233 23.2798 24.0443 18.202 24.0443 12.0441C24.0439 5.39238 18.6515 0 11.9998 0Z" fill="#332115"/>
</svg>
