<svg width="16" height="16" viewBox="0 0 16 16" fill="none" xmlns="http://www.w3.org/2000/svg">
<path d="M8.00195 0C12.4212 0 16.0037 3.58273 16.0039 8.00195C16.0039 12.4213 12.4213 16.0039 8.00195 16.0039C3.58261 16.0038 0 12.4213 0 8.00195C0.000189339 3.58276 3.58273 5.75931e-05 8.00195 0ZM9.9707 11.8984C9.33903 11.9744 8.67902 12.0156 8.00195 12.0156C7.32452 12.0156 6.6642 11.9745 6.03223 11.8984C6.13595 12.2319 6.25149 12.5413 6.37793 12.8223C6.94723 14.0874 7.57976 14.5037 8.00195 14.5039C8.42413 14.5037 9.05571 14.0873 9.625 12.8223C9.75145 12.5412 9.86697 12.2319 9.9707 11.8984ZM2.11914 10.7734C2.76259 12.137 3.86611 13.24 5.22949 13.8838C5.15185 13.7378 5.0778 13.5887 5.00977 13.4375C4.76464 12.8926 4.55836 12.2761 4.39648 11.6064C3.72732 11.4446 3.11095 11.2392 2.56641 10.9941C2.41474 10.9259 2.26555 10.8513 2.11914 10.7734ZM13.8838 10.7734C13.7376 10.8512 13.5889 10.926 13.4375 10.9941C12.8927 11.2393 12.276 11.4446 11.6064 11.6064C11.4446 12.2761 11.2383 12.8926 10.9932 13.4375C10.9251 13.5888 10.8511 13.7377 10.7734 13.8838C12.1371 13.2401 13.2402 12.1371 13.8838 10.7734ZM8.00195 5.48926C7.17677 5.48926 6.39171 5.55329 5.66992 5.66992C5.55327 6.39171 5.4883 7.17675 5.48828 8.00195C5.48828 8.82669 5.55341 9.61156 5.66992 10.333C6.39175 10.4497 7.17671 10.5156 8.00195 10.5156C8.82683 10.5156 9.61146 10.4496 10.333 10.333C10.4495 9.61153 10.5146 8.82672 10.5146 8.00195C10.5146 7.17672 10.4497 6.39174 10.333 5.66992C9.6115 5.55339 8.82676 5.48926 8.00195 5.48926ZM4.10449 6.03223C3.77131 6.1359 3.46242 6.25255 3.18164 6.37891C1.9165 6.9483 1.5 7.58077 1.5 8.00293C1.50048 8.4251 1.91719 9.05691 3.18164 9.62598C3.46231 9.75227 3.77148 9.86707 4.10449 9.9707C4.02851 9.33912 3.98828 8.67888 3.98828 8.00195C3.9883 7.32457 4.02841 6.66418 4.10449 6.03223ZM11.8975 6.03223C11.9736 6.66422 12.0146 7.32449 12.0146 8.00195C12.0146 8.67896 11.9734 9.33908 11.8975 9.9707C12.2312 9.86693 12.5411 9.75249 12.8223 9.62598C14.0868 9.0569 14.5034 8.42511 14.5039 8.00293C14.5039 7.58075 14.0875 6.94832 12.8223 6.37891C12.541 6.25232 12.2314 6.13605 11.8975 6.03223ZM5.22852 2.12012C3.86623 2.76358 2.76365 3.86627 2.12012 5.22852C2.26595 5.15096 2.41537 5.07872 2.56641 5.01074C3.11103 4.76568 3.72717 4.55835 4.39648 4.39648C4.55834 3.72727 4.76474 3.11096 5.00977 2.56641C5.07779 2.41524 5.15089 2.26607 5.22852 2.12012ZM10.7734 2.12012C10.8511 2.26621 10.9251 2.41509 10.9932 2.56641C11.2382 3.11093 11.4446 3.72733 11.6064 4.39648C12.2762 4.55839 12.8926 4.76556 13.4375 5.01074C13.5883 5.0786 13.7372 5.15111 13.8828 5.22852C13.239 3.86589 12.1364 2.7634 10.7734 2.12012ZM8.00195 1.5C7.57978 1.5002 6.9472 1.91673 6.37793 3.18164C6.25161 3.46234 6.13588 3.77142 6.03223 4.10449C6.66417 4.02842 7.32458 3.98926 8.00195 3.98926C8.67896 3.98926 9.33906 4.0285 9.9707 4.10449C9.86706 3.77148 9.7513 3.4623 9.625 3.18164C9.05576 1.917 8.42408 1.50018 8.00195 1.5Z" fill="#0053D4"/>
</svg>
