<svg width="24" height="24" viewBox="0 0 24 24" fill="none" xmlns="http://www.w3.org/2000/svg">
<g clip-path="url(#clip0_8004_1244)">
<path d="M12.0029 0C15.2607 1.40097e-06 15.6688 0.0142611 16.9531 0.0751953C18.2284 0.131457 19.101 0.33744 19.8652 0.632812C20.6528 0.937555 21.3235 1.34992 21.9893 2.01562C22.6597 2.68139 23.0669 3.35238 23.3623 4.14941C23.6577 4.90889 23.8646 5.78544 23.9209 7.06055C23.9772 8.34046 23.9912 8.74863 23.9912 12.0068C23.9912 15.265 23.9771 15.6734 23.9209 16.9531C23.8646 18.2284 23.6577 19.101 23.3623 19.8652C23.0576 20.6528 22.6452 21.3236 21.9795 21.9893C21.3138 22.6549 20.6431 23.0674 19.8555 23.3721C19.096 23.6674 18.2194 23.8734 16.9443 23.9297C15.6644 23.9859 15.2563 24 11.998 24C8.73984 24 8.33146 23.9859 7.05176 23.9297C5.7765 23.8734 4.90387 23.6674 4.13965 23.3721C3.35207 23.0673 2.68133 22.655 2.01562 21.9893C1.34518 21.3235 0.937367 20.6527 0.62793 19.8604C0.332604 19.1009 0.126602 18.2242 0.0703125 16.9492C0.0140539 15.6693 1.40382e-06 15.261 0 12.0029C0 8.74473 0.0140629 8.33614 0.0703125 7.05176C0.126574 5.7765 0.332557 4.90387 0.62793 4.13965C0.937362 3.35204 1.34521 2.68135 2.01562 2.01562C2.68139 1.34518 3.35218 0.937367 4.14453 0.62793C4.90396 0.332604 5.78068 0.126602 7.05566 0.0703125C8.33561 0.0140511 8.74445 0 12.0029 0ZM12.0029 2.16113C8.79603 2.16113 8.41549 2.17518 7.1543 2.23145C5.9871 2.28303 5.34966 2.48045 4.92773 2.64453C4.36981 2.8602 3.97079 3.11808 3.54883 3.54004C3.13175 3.95719 2.86893 4.36021 2.65332 4.91797C2.48922 5.33993 2.29278 5.97339 2.24121 7.14551C2.18496 8.40646 2.1709 8.78651 2.1709 11.9932C2.1709 15.1952 2.18495 15.575 2.24121 16.8408C2.29278 18.0082 2.48922 18.6464 2.65332 19.0684C2.86894 19.6261 3.12704 20.0245 3.54883 20.4463C3.9661 20.8636 4.36981 21.1261 4.92773 21.3418C5.34966 21.5059 5.98247 21.7033 7.1543 21.7549C8.41549 21.8111 8.79603 21.8252 12.0029 21.8252C15.2047 21.8252 15.5848 21.8111 16.8506 21.7549C18.0177 21.7033 18.6552 21.5059 19.0771 21.3418C19.6351 21.1261 20.0341 20.8682 20.4561 20.4463C20.8732 20.0291 21.1359 19.6261 21.3516 19.0684C21.5157 18.6464 21.7121 18.0129 21.7637 16.8408C21.8199 15.5797 21.834 15.1999 21.834 11.9932C21.834 8.7912 21.8199 8.41115 21.7637 7.14551C21.7121 5.97808 21.5157 5.33993 21.3516 4.91797C21.136 4.36021 20.8778 3.96187 20.4561 3.54004C20.0388 3.12277 19.6351 2.8602 19.0771 2.64453C18.6552 2.48045 18.0225 2.28303 16.8506 2.23145C15.5895 2.17519 15.2094 2.16113 12.0029 2.16113ZM12.0029 5.83691C15.4065 5.83718 18.168 8.59927 18.168 12.0029C18.1677 15.4064 15.4064 18.1677 12.0029 18.168C8.59927 18.168 5.83718 15.4065 5.83691 12.0029C5.83691 8.59911 8.59911 5.83691 12.0029 5.83691ZM12.0029 8.00293C9.79467 8.00293 8.00293 9.79467 8.00293 12.0029C8.00319 14.211 9.79483 16.002 12.0029 16.002C14.2108 16.0017 16.0017 14.2108 16.002 12.0029C16.002 9.79483 14.211 8.00319 12.0029 8.00293ZM18.4121 4.1543C19.2044 4.15435 19.8516 4.80143 19.8516 5.59375C19.8515 6.39071 19.2044 7.03315 18.4121 7.0332C17.6151 7.0332 16.9727 6.38606 16.9727 5.59375C16.9727 4.79671 17.6198 4.1543 18.4121 4.1543Z" fill="#332115"/>
</g>
<defs>
<clipPath id="clip0_8004_1244">
<rect width="24" height="24" fill="white"/>
</clipPath>
</defs>
</svg>
