<svg width="24" height="17" viewBox="0 0 24 17" fill="none" xmlns="http://www.w3.org/2000/svg">
<path d="M23.8448 3.66815C23.8448 3.66815 23.6087 2.00167 22.8817 1.26993C21.9611 0.306859 20.932 0.302138 20.4599 0.245487C17.0797 -1.35066e-07 12.0047 0 12.0047 0H11.9953C11.9953 0 6.92032 -1.35066e-07 3.54015 0.245487C3.06806 0.302138 2.0389 0.306859 1.11832 1.26993C0.391302 2.00167 0.159977 3.66815 0.159977 3.66815C0.159977 3.66815 -0.0855103 5.62733 -0.0855103 7.58178V9.4135C-0.0855103 11.368 0.155256 13.3271 0.155256 13.3271C0.155256 13.3271 0.391302 14.9936 1.1136 15.7254C2.03418 16.6884 3.24273 16.6554 3.78092 16.7592C5.71649 16.9433 12 17 12 17C12 17 17.0797 16.9906 20.4599 16.7498C20.932 16.6931 21.9611 16.6884 22.8817 15.7254C23.6087 14.9936 23.8448 13.3271 23.8448 13.3271C23.8448 13.3271 24.0856 11.3727 24.0856 9.4135V7.58178C24.0856 5.62733 23.8448 3.66815 23.8448 3.66815ZM9.50266 11.637V4.84365L16.0317 8.25215L9.50266 11.637Z" fill="#332115"/>
</svg>
